{
	"patcher" : 	{
		"fileversion" : 1,
		"appversion" : 		{
			"major" : 6,
			"minor" : 0,
			"revision" : 5
		}
,
		"rect" : [ 4.0, 44.0, 1670.0, 960.0 ],
		"bglocked" : 0,
		"openinpresentation" : 0,
		"default_fontsize" : 12.0,
		"default_fontface" : 0,
		"default_fontname" : "Arial",
		"gridonopen" : 0,
		"gridsize" : [ 15.0, 15.0 ],
		"gridsnaponopen" : 0,
		"statusbarvisible" : 2,
		"toolbarvisible" : 1,
		"boxanimatetime" : 200,
		"imprint" : 0,
		"enablehscroll" : 1,
		"enablevscroll" : 1,
		"devicewidth" : 0.0,
		"description" : "",
		"digest" : "",
		"tags" : "",
		"boxes" : [ 			{
				"box" : 				{
					"id" : "obj-3",
					"maxclass" : "ezdac~",
					"numinlets" : 2,
					"numoutlets" : 0,
					"patching_rect" : [ 811.0, 1026.0, 45.0, 45.0 ],
					"presentation_rect" : [ 428.0, 917.0, 0.0, 0.0 ]
				}

			}
, 			{
				"box" : 				{
					"id" : "obj-2",
					"maxclass" : "ezdac~",
					"numinlets" : 2,
					"numoutlets" : 0,
					"patching_rect" : [ 388.0, 448.0, 45.0, 45.0 ],
					"presentation_rect" : [ 343.0, 444.0, 0.0, 0.0 ]
				}

			}
, 			{
				"box" : 				{
					"id" : "obj-1",
					"maxclass" : "ezdac~",
					"numinlets" : 2,
					"numoutlets" : 0,
					"patching_rect" : [ 553.0, 189.0, 45.0, 45.0 ]
				}

			}
, 			{
				"box" : 				{
					"fontname" : "Arial",
					"fontsize" : 12.0,
					"id" : "obj-516",
					"linecount" : 3,
					"maxclass" : "comment",
					"numinlets" : 1,
					"numoutlets" : 0,
					"patching_rect" : [ 70.5, 611.0, 182.0, 48.0 ],
					"text" : "Random Analog - Obj3\nbest of run fitness: 0.97151290\nbest of run generation: 615"
				}

			}
, 			{
				"box" : 				{
					"fontname" : "Arial",
					"fontsize" : 12.0,
					"id" : "obj-457",
					"linecount" : 3,
					"maxclass" : "comment",
					"numinlets" : 1,
					"numoutlets" : 0,
					"patching_rect" : [ 27.5, 15.0, 182.0, 48.0 ],
					"text" : "Random Analog - Obj1\nbest of run fitness: 0.97048180\nbest of run generation: 703"
				}

			}
, 			{
				"box" : 				{
					"fontname" : "Arial",
					"fontsize" : 12.0,
					"id" : "obj-446",
					"linecount" : 3,
					"maxclass" : "comment",
					"numinlets" : 1,
					"numoutlets" : 0,
					"patching_rect" : [ 27.5, 200.0, 182.0, 48.0 ],
					"text" : "Random Analog - Obj2\nbest of run fitness: 0.97047163\nbest of run generation: 626"
				}

			}
, 			{
				"box" : 				{
					"fontname" : "Arial",
					"fontsize" : 12.0,
					"id" : "obj-433",
					"maxclass" : "newobj",
					"numinlets" : 3,
					"numoutlets" : 1,
					"outlettype" : [ "signal" ],
					"patching_rect" : [ 401.5, 408.0, 46.0, 20.0 ],
					"text" : "lores~"
				}

			}
, 			{
				"box" : 				{
					"fontname" : "Arial",
					"fontsize" : 12.0,
					"id" : "obj-434",
					"maxclass" : "newobj",
					"numinlets" : 3,
					"numoutlets" : 1,
					"outlettype" : [ "signal" ],
					"patching_rect" : [ 251.0, 365.0, 46.0, 20.0 ],
					"text" : "lores~"
				}

			}
, 			{
				"box" : 				{
					"fontname" : "Arial",
					"fontsize" : 12.0,
					"id" : "obj-435",
					"maxclass" : "newobj",
					"numinlets" : 1,
					"numoutlets" : 1,
					"outlettype" : [ "signal" ],
					"patching_rect" : [ 210.5, 316.0, 46.0, 20.0 ],
					"text" : "noise~"
				}

			}
, 			{
				"box" : 				{
					"fontname" : "Arial",
					"fontsize" : 12.0,
					"id" : "obj-436",
					"maxclass" : "newobj",
					"numinlets" : 1,
					"numoutlets" : 1,
					"outlettype" : [ "signal" ],
					"patching_rect" : [ 263.5, 316.0, 46.0, 20.0 ],
					"text" : "noise~"
				}

			}
, 			{
				"box" : 				{
					"fontname" : "Arial",
					"fontsize" : 12.0,
					"id" : "obj-437",
					"maxclass" : "newobj",
					"numinlets" : 1,
					"numoutlets" : 1,
					"outlettype" : [ "signal" ],
					"patching_rect" : [ 319.5, 316.0, 46.0, 20.0 ],
					"text" : "noise~"
				}

			}
, 			{
				"box" : 				{
					"fontname" : "Arial",
					"fontsize" : 12.0,
					"id" : "obj-438",
					"maxclass" : "newobj",
					"numinlets" : 3,
					"numoutlets" : 1,
					"outlettype" : [ "signal" ],
					"patching_rect" : [ 414.5, 365.0, 51.0, 20.0 ],
					"text" : "stutter~"
				}

			}
, 			{
				"box" : 				{
					"fontname" : "Arial",
					"fontsize" : 12.0,
					"id" : "obj-439",
					"maxclass" : "newobj",
					"numinlets" : 3,
					"numoutlets" : 1,
					"outlettype" : [ "signal" ],
					"patching_rect" : [ 379.0, 316.0, 46.0, 20.0 ],
					"text" : "lores~"
				}

			}
, 			{
				"box" : 				{
					"fontname" : "Arial",
					"fontsize" : 12.0,
					"id" : "obj-440",
					"maxclass" : "newobj",
					"numinlets" : 1,
					"numoutlets" : 1,
					"outlettype" : [ "signal" ],
					"patching_rect" : [ 339.0, 263.0, 46.0, 20.0 ],
					"text" : "noise~"
				}

			}
, 			{
				"box" : 				{
					"fontname" : "Arial",
					"fontsize" : 12.0,
					"id" : "obj-441",
					"maxclass" : "newobj",
					"numinlets" : 1,
					"numoutlets" : 1,
					"outlettype" : [ "signal" ],
					"patching_rect" : [ 392.0, 263.0, 46.0, 20.0 ],
					"text" : "noise~"
				}

			}
, 			{
				"box" : 				{
					"fontname" : "Arial",
					"fontsize" : 12.0,
					"id" : "obj-442",
					"maxclass" : "newobj",
					"numinlets" : 1,
					"numoutlets" : 1,
					"outlettype" : [ "signal" ],
					"patching_rect" : [ 439.0, 263.0, 46.0, 20.0 ],
					"text" : "noise~"
				}

			}
, 			{
				"box" : 				{
					"fontname" : "Arial",
					"fontsize" : 12.0,
					"id" : "obj-443",
					"maxclass" : "newobj",
					"numinlets" : 1,
					"numoutlets" : 1,
					"outlettype" : [ "signal" ],
					"patching_rect" : [ 430.5, 316.0, 46.0, 20.0 ],
					"text" : "noise~"
				}

			}
, 			{
				"box" : 				{
					"fontname" : "Arial",
					"fontsize" : 12.0,
					"id" : "obj-444",
					"maxclass" : "newobj",
					"numinlets" : 1,
					"numoutlets" : 1,
					"outlettype" : [ "signal" ],
					"patching_rect" : [ 483.0, 316.0, 46.0, 20.0 ],
					"text" : "noise~"
				}

			}
, 			{
				"box" : 				{
					"fontname" : "Arial",
					"fontsize" : 12.0,
					"id" : "obj-445",
					"maxclass" : "newobj",
					"numinlets" : 1,
					"numoutlets" : 1,
					"outlettype" : [ "signal" ],
					"patching_rect" : [ 478.0, 365.0, 46.0, 20.0 ],
					"text" : "noise~"
				}

			}
, 			{
				"box" : 				{
					"fontname" : "Arial",
					"fontsize" : 12.0,
					"id" : "obj-447",
					"maxclass" : "newobj",
					"numinlets" : 3,
					"numoutlets" : 1,
					"outlettype" : [ "signal" ],
					"patching_rect" : [ 565.0, 146.0, 46.0, 20.0 ],
					"text" : "lores~"
				}

			}
, 			{
				"box" : 				{
					"fontname" : "Arial",
					"fontsize" : 12.0,
					"id" : "obj-448",
					"maxclass" : "newobj",
					"numinlets" : 3,
					"numoutlets" : 1,
					"outlettype" : [ "signal" ],
					"patching_rect" : [ 414.5, 105.0, 46.0, 20.0 ],
					"text" : "lores~"
				}

			}
, 			{
				"box" : 				{
					"fontname" : "Arial",
					"fontsize" : 12.0,
					"id" : "obj-449",
					"maxclass" : "newobj",
					"numinlets" : 1,
					"numoutlets" : 1,
					"outlettype" : [ "signal" ],
					"patching_rect" : [ 374.0, 63.0, 46.0, 20.0 ],
					"text" : "noise~"
				}

			}
, 			{
				"box" : 				{
					"fontname" : "Arial",
					"fontsize" : 12.0,
					"id" : "obj-450",
					"maxclass" : "newobj",
					"numinlets" : 1,
					"numoutlets" : 1,
					"outlettype" : [ "signal" ],
					"patching_rect" : [ 428.0, 63.0, 46.0, 20.0 ],
					"text" : "noise~"
				}

			}
, 			{
				"box" : 				{
					"fontname" : "Arial",
					"fontsize" : 12.0,
					"id" : "obj-451",
					"maxclass" : "newobj",
					"numinlets" : 1,
					"numoutlets" : 1,
					"outlettype" : [ "signal" ],
					"patching_rect" : [ 483.0, 63.0, 46.0, 20.0 ],
					"text" : "noise~"
				}

			}
, 			{
				"box" : 				{
					"fontname" : "Arial",
					"fontsize" : 12.0,
					"id" : "obj-452",
					"maxclass" : "newobj",
					"numinlets" : 3,
					"numoutlets" : 1,
					"outlettype" : [ "signal" ],
					"patching_rect" : [ 579.0, 105.0, 46.0, 20.0 ],
					"text" : "lores~"
				}

			}
, 			{
				"box" : 				{
					"fontname" : "Arial",
					"fontsize" : 12.0,
					"id" : "obj-453",
					"maxclass" : "newobj",
					"numinlets" : 1,
					"numoutlets" : 1,
					"outlettype" : [ "signal" ],
					"patching_rect" : [ 536.0, 63.0, 46.0, 20.0 ],
					"text" : "noise~"
				}

			}
, 			{
				"box" : 				{
					"fontname" : "Arial",
					"fontsize" : 12.0,
					"id" : "obj-454",
					"maxclass" : "newobj",
					"numinlets" : 1,
					"numoutlets" : 1,
					"outlettype" : [ "signal" ],
					"patching_rect" : [ 593.0, 63.0, 46.0, 20.0 ],
					"text" : "noise~"
				}

			}
, 			{
				"box" : 				{
					"fontname" : "Arial",
					"fontsize" : 12.0,
					"id" : "obj-455",
					"maxclass" : "newobj",
					"numinlets" : 1,
					"numoutlets" : 1,
					"outlettype" : [ "signal" ],
					"patching_rect" : [ 645.0, 63.0, 46.0, 20.0 ],
					"text" : "noise~"
				}

			}
, 			{
				"box" : 				{
					"fontname" : "Arial",
					"fontsize" : 12.0,
					"id" : "obj-456",
					"maxclass" : "newobj",
					"numinlets" : 1,
					"numoutlets" : 1,
					"outlettype" : [ "signal" ],
					"patching_rect" : [ 636.0, 105.0, 46.0, 20.0 ],
					"text" : "noise~"
				}

			}
, 			{
				"box" : 				{
					"fontname" : "Arial",
					"fontsize" : 12.0,
					"id" : "obj-458",
					"maxclass" : "newobj",
					"numinlets" : 3,
					"numoutlets" : 1,
					"outlettype" : [ "signal" ],
					"patching_rect" : [ 821.5, 990.0, 46.0, 20.0 ],
					"text" : "slide~"
				}

			}
, 			{
				"box" : 				{
					"fontname" : "Arial",
					"fontsize" : 12.0,
					"id" : "obj-459",
					"maxclass" : "newobj",
					"numinlets" : 3,
					"numoutlets" : 1,
					"outlettype" : [ "signal" ],
					"patching_rect" : [ 777.5, 950.0, 51.0, 20.0 ],
					"text" : "stutter~"
				}

			}
, 			{
				"box" : 				{
					"fontname" : "Arial",
					"fontsize" : 12.0,
					"id" : "obj-460",
					"maxclass" : "newobj",
					"numinlets" : 3,
					"numoutlets" : 1,
					"outlettype" : [ "signal" ],
					"patching_rect" : [ 606.0, 875.0, 46.0, 20.0 ],
					"text" : "lores~"
				}

			}
, 			{
				"box" : 				{
					"fontname" : "Arial",
					"fontsize" : 12.0,
					"id" : "obj-461",
					"maxclass" : "newobj",
					"numinlets" : 1,
					"numoutlets" : 1,
					"outlettype" : [ "signal" ],
					"patching_rect" : [ 566.5, 774.0, 46.0, 20.0 ],
					"text" : "noise~"
				}

			}
, 			{
				"box" : 				{
					"fontname" : "Arial",
					"fontsize" : 12.0,
					"id" : "obj-462",
					"maxclass" : "newobj",
					"numinlets" : 3,
					"numoutlets" : 1,
					"outlettype" : [ "signal" ],
					"patching_rect" : [ 619.5, 774.0, 46.0, 20.0 ],
					"text" : "lores~"
				}

			}
, 			{
				"box" : 				{
					"fontname" : "Arial",
					"fontsize" : 12.0,
					"id" : "obj-463",
					"maxclass" : "newobj",
					"numinlets" : 3,
					"numoutlets" : 1,
					"outlettype" : [ "signal" ],
					"patching_rect" : [ 487.0, 730.0, 46.0, 20.0 ],
					"text" : "lores~"
				}

			}
, 			{
				"box" : 				{
					"fontname" : "Arial",
					"fontsize" : 12.0,
					"id" : "obj-464",
					"maxclass" : "newobj",
					"numinlets" : 1,
					"numoutlets" : 1,
					"outlettype" : [ "signal" ],
					"patching_rect" : [ 451.0, 667.0, 46.0, 20.0 ],
					"text" : "noise~"
				}

			}
, 			{
				"box" : 				{
					"fontname" : "Arial",
					"fontsize" : 12.0,
					"id" : "obj-465",
					"maxclass" : "newobj",
					"numinlets" : 1,
					"numoutlets" : 1,
					"outlettype" : [ "signal" ],
					"patching_rect" : [ 501.0, 667.0, 46.0, 20.0 ],
					"text" : "noise~"
				}

			}
, 			{
				"box" : 				{
					"fontname" : "Arial",
					"fontsize" : 12.0,
					"id" : "obj-466",
					"maxclass" : "newobj",
					"numinlets" : 1,
					"numoutlets" : 1,
					"outlettype" : [ "signal" ],
					"patching_rect" : [ 552.5, 667.0, 46.0, 20.0 ],
					"text" : "noise~"
				}

			}
, 			{
				"box" : 				{
					"fontname" : "Arial",
					"fontsize" : 12.0,
					"id" : "obj-467",
					"maxclass" : "newobj",
					"numinlets" : 3,
					"numoutlets" : 1,
					"outlettype" : [ "signal" ],
					"patching_rect" : [ 633.0, 730.0, 46.0, 20.0 ],
					"text" : "lores~"
				}

			}
, 			{
				"box" : 				{
					"fontname" : "Arial",
					"fontsize" : 12.0,
					"id" : "obj-468",
					"maxclass" : "newobj",
					"numinlets" : 1,
					"numoutlets" : 1,
					"outlettype" : [ "signal" ],
					"patching_rect" : [ 603.5, 667.0, 46.0, 20.0 ],
					"text" : "noise~"
				}

			}
, 			{
				"box" : 				{
					"fontname" : "Arial",
					"fontsize" : 12.0,
					"id" : "obj-469",
					"maxclass" : "newobj",
					"numinlets" : 1,
					"numoutlets" : 1,
					"outlettype" : [ "signal" ],
					"patching_rect" : [ 654.5, 667.0, 46.0, 20.0 ],
					"text" : "noise~"
				}

			}
, 			{
				"box" : 				{
					"fontname" : "Arial",
					"fontsize" : 12.0,
					"id" : "obj-470",
					"maxclass" : "newobj",
					"numinlets" : 1,
					"numoutlets" : 1,
					"outlettype" : [ "signal" ],
					"patching_rect" : [ 706.0, 667.0, 46.0, 20.0 ],
					"text" : "noise~"
				}

			}
, 			{
				"box" : 				{
					"fontname" : "Arial",
					"fontsize" : 12.0,
					"id" : "obj-471",
					"maxclass" : "newobj",
					"numinlets" : 1,
					"numoutlets" : 1,
					"outlettype" : [ "signal" ],
					"patching_rect" : [ 693.5, 730.0, 46.0, 20.0 ],
					"text" : "noise~"
				}

			}
, 			{
				"box" : 				{
					"fontname" : "Arial",
					"fontsize" : 12.0,
					"id" : "obj-472",
					"maxclass" : "newobj",
					"numinlets" : 3,
					"numoutlets" : 1,
					"outlettype" : [ "signal" ],
					"patching_rect" : [ 826.0, 667.0, 51.0, 20.0 ],
					"text" : "stutter~"
				}

			}
, 			{
				"box" : 				{
					"fontname" : "Arial",
					"fontsize" : 12.0,
					"id" : "obj-473",
					"maxclass" : "newobj",
					"numinlets" : 3,
					"numoutlets" : 1,
					"outlettype" : [ "signal" ],
					"patching_rect" : [ 680.5, 623.0, 46.0, 20.0 ],
					"text" : "pong~"
				}

			}
, 			{
				"box" : 				{
					"fontname" : "Arial",
					"fontsize" : 12.0,
					"id" : "obj-474",
					"maxclass" : "newobj",
					"numinlets" : 1,
					"numoutlets" : 1,
					"outlettype" : [ "signal" ],
					"patching_rect" : [ 642.0, 590.0, 46.0, 20.0 ],
					"text" : "noise~"
				}

			}
, 			{
				"box" : 				{
					"fontname" : "Arial",
					"fontsize" : 12.0,
					"id" : "obj-475",
					"maxclass" : "newobj",
					"numinlets" : 1,
					"numoutlets" : 1,
					"outlettype" : [ "signal" ],
					"patching_rect" : [ 694.0, 590.0, 46.0, 20.0 ],
					"text" : "noise~"
				}

			}
, 			{
				"box" : 				{
					"fontname" : "Arial",
					"fontsize" : 12.0,
					"id" : "obj-476",
					"maxclass" : "newobj",
					"numinlets" : 1,
					"numoutlets" : 1,
					"outlettype" : [ "signal" ],
					"patching_rect" : [ 748.0, 590.0, 46.0, 20.0 ],
					"text" : "noise~"
				}

			}
, 			{
				"box" : 				{
					"fontname" : "Arial",
					"fontsize" : 12.0,
					"id" : "obj-477",
					"maxclass" : "newobj",
					"numinlets" : 3,
					"numoutlets" : 1,
					"outlettype" : [ "signal" ],
					"patching_rect" : [ 842.0, 623.0, 46.0, 20.0 ],
					"text" : "lores~"
				}

			}
, 			{
				"box" : 				{
					"fontname" : "Arial",
					"fontsize" : 12.0,
					"id" : "obj-478",
					"maxclass" : "newobj",
					"numinlets" : 3,
					"numoutlets" : 1,
					"outlettype" : [ "signal" ],
					"patching_rect" : [ 759.0, 543.0, 46.0, 20.0 ],
					"text" : "lores~"
				}

			}
, 			{
				"box" : 				{
					"fontname" : "Arial",
					"fontsize" : 12.0,
					"id" : "obj-479",
					"maxclass" : "newobj",
					"numinlets" : 1,
					"numoutlets" : 1,
					"outlettype" : [ "signal" ],
					"patching_rect" : [ 712.0, 484.0, 46.0, 20.0 ],
					"text" : "noise~"
				}

			}
, 			{
				"box" : 				{
					"fontname" : "Arial",
					"fontsize" : 12.0,
					"id" : "obj-480",
					"maxclass" : "newobj",
					"numinlets" : 1,
					"numoutlets" : 1,
					"outlettype" : [ "signal" ],
					"patching_rect" : [ 766.0, 484.0, 46.0, 20.0 ],
					"text" : "noise~"
				}

			}
, 			{
				"box" : 				{
					"fontname" : "Arial",
					"fontsize" : 12.0,
					"id" : "obj-481",
					"maxclass" : "newobj",
					"numinlets" : 1,
					"numoutlets" : 1,
					"outlettype" : [ "signal" ],
					"patching_rect" : [ 824.0, 484.0, 46.0, 20.0 ],
					"text" : "noise~"
				}

			}
, 			{
				"box" : 				{
					"fontname" : "Arial",
					"fontsize" : 12.0,
					"id" : "obj-482",
					"maxclass" : "newobj",
					"numinlets" : 3,
					"numoutlets" : 1,
					"outlettype" : [ "signal" ],
					"patching_rect" : [ 855.5, 590.0, 46.0, 20.0 ],
					"text" : "lores~"
				}

			}
, 			{
				"box" : 				{
					"fontname" : "Arial",
					"fontsize" : 12.0,
					"id" : "obj-483",
					"maxclass" : "newobj",
					"numinlets" : 1,
					"numoutlets" : 1,
					"outlettype" : [ "signal" ],
					"patching_rect" : [ 811.0, 543.0, 46.0, 20.0 ],
					"text" : "noise~"
				}

			}
, 			{
				"box" : 				{
					"fontname" : "Arial",
					"fontsize" : 12.0,
					"id" : "obj-484",
					"maxclass" : "newobj",
					"numinlets" : 1,
					"numoutlets" : 1,
					"outlettype" : [ "signal" ],
					"patching_rect" : [ 869.0, 543.0, 46.0, 20.0 ],
					"text" : "noise~"
				}

			}
, 			{
				"box" : 				{
					"fontname" : "Arial",
					"fontsize" : 12.0,
					"id" : "obj-485",
					"maxclass" : "newobj",
					"numinlets" : 1,
					"numoutlets" : 1,
					"outlettype" : [ "signal" ],
					"patching_rect" : [ 921.0, 543.0, 46.0, 20.0 ],
					"text" : "noise~"
				}

			}
, 			{
				"box" : 				{
					"fontname" : "Arial",
					"fontsize" : 12.0,
					"id" : "obj-486",
					"maxclass" : "newobj",
					"numinlets" : 1,
					"numoutlets" : 1,
					"outlettype" : [ "signal" ],
					"patching_rect" : [ 907.0, 590.0, 46.0, 20.0 ],
					"text" : "noise~"
				}

			}
, 			{
				"box" : 				{
					"fontname" : "Arial",
					"fontsize" : 12.0,
					"id" : "obj-487",
					"maxclass" : "newobj",
					"numinlets" : 3,
					"numoutlets" : 1,
					"outlettype" : [ "signal" ],
					"patching_rect" : [ 1061.0, 623.0, 46.0, 20.0 ],
					"text" : "lores~"
				}

			}
, 			{
				"box" : 				{
					"fontname" : "Arial",
					"fontsize" : 12.0,
					"id" : "obj-488",
					"maxclass" : "newobj",
					"numinlets" : 3,
					"numoutlets" : 1,
					"outlettype" : [ "signal" ],
					"patching_rect" : [ 1021.0, 586.0, 46.0, 20.0 ],
					"text" : "pong~"
				}

			}
, 			{
				"box" : 				{
					"fontname" : "Arial",
					"fontsize" : 12.0,
					"id" : "obj-489",
					"maxclass" : "newobj",
					"numinlets" : 1,
					"numoutlets" : 1,
					"outlettype" : [ "signal" ],
					"patching_rect" : [ 976.0, 543.0, 46.0, 20.0 ],
					"text" : "noise~"
				}

			}
, 			{
				"box" : 				{
					"fontname" : "Arial",
					"fontsize" : 12.0,
					"id" : "obj-490",
					"maxclass" : "newobj",
					"numinlets" : 1,
					"numoutlets" : 1,
					"outlettype" : [ "signal" ],
					"patching_rect" : [ 1034.5, 543.0, 46.0, 20.0 ],
					"text" : "noise~"
				}

			}
, 			{
				"box" : 				{
					"fontname" : "Arial",
					"fontsize" : 12.0,
					"id" : "obj-491",
					"maxclass" : "newobj",
					"numinlets" : 1,
					"numoutlets" : 1,
					"outlettype" : [ "signal" ],
					"patching_rect" : [ 1088.0, 543.0, 46.0, 20.0 ],
					"text" : "noise~"
				}

			}
, 			{
				"box" : 				{
					"fontname" : "Arial",
					"fontsize" : 12.0,
					"id" : "obj-492",
					"maxclass" : "newobj",
					"numinlets" : 1,
					"numoutlets" : 1,
					"outlettype" : [ "signal" ],
					"patching_rect" : [ 1075.0, 586.0, 46.0, 20.0 ],
					"text" : "noise~"
				}

			}
, 			{
				"box" : 				{
					"fontname" : "Arial",
					"fontsize" : 12.0,
					"id" : "obj-493",
					"maxclass" : "newobj",
					"numinlets" : 1,
					"numoutlets" : 1,
					"outlettype" : [ "signal" ],
					"patching_rect" : [ 1129.0, 586.0, 46.0, 20.0 ],
					"text" : "noise~"
				}

			}
, 			{
				"box" : 				{
					"fontname" : "Arial",
					"fontsize" : 12.0,
					"id" : "obj-494",
					"maxclass" : "newobj",
					"numinlets" : 1,
					"numoutlets" : 1,
					"outlettype" : [ "signal" ],
					"patching_rect" : [ 793.5, 912.0, 46.0, 20.0 ],
					"text" : "noise~"
				}

			}
, 			{
				"box" : 				{
					"fontname" : "Arial",
					"fontsize" : 12.0,
					"id" : "obj-495",
					"maxclass" : "newobj",
					"numinlets" : 3,
					"numoutlets" : 1,
					"outlettype" : [ "signal" ],
					"patching_rect" : [ 888.0, 885.0, 46.0, 20.0 ],
					"text" : "lores~"
				}

			}
, 			{
				"box" : 				{
					"fontname" : "Arial",
					"fontsize" : 12.0,
					"id" : "obj-496",
					"maxclass" : "newobj",
					"numinlets" : 1,
					"numoutlets" : 1,
					"outlettype" : [ "signal" ],
					"patching_rect" : [ 848.0, 843.0, 46.0, 20.0 ],
					"text" : "noise~"
				}

			}
, 			{
				"box" : 				{
					"fontname" : "Arial",
					"fontsize" : 12.0,
					"id" : "obj-497",
					"maxclass" : "newobj",
					"numinlets" : 1,
					"numoutlets" : 1,
					"outlettype" : [ "signal" ],
					"patching_rect" : [ 901.5, 843.0, 46.0, 20.0 ],
					"text" : "noise~"
				}

			}
, 			{
				"box" : 				{
					"fontname" : "Arial",
					"fontsize" : 12.0,
					"id" : "obj-498",
					"maxclass" : "newobj",
					"numinlets" : 3,
					"numoutlets" : 1,
					"outlettype" : [ "signal" ],
					"patching_rect" : [ 950.0, 842.0, 51.0, 20.0 ],
					"text" : "stutter~"
				}

			}
, 			{
				"box" : 				{
					"fontname" : "Arial",
					"fontsize" : 12.0,
					"id" : "obj-499",
					"maxclass" : "newobj",
					"numinlets" : 3,
					"numoutlets" : 1,
					"outlettype" : [ "signal" ],
					"patching_rect" : [ 848.0, 786.0, 51.0, 20.0 ],
					"text" : "stutter~"
				}

			}
, 			{
				"box" : 				{
					"fontname" : "Arial",
					"fontsize" : 12.0,
					"id" : "obj-500",
					"maxclass" : "newobj",
					"numinlets" : 1,
					"numoutlets" : 1,
					"outlettype" : [ "signal" ],
					"patching_rect" : [ 811.0, 743.0, 46.0, 20.0 ],
					"text" : "noise~"
				}

			}
, 			{
				"box" : 				{
					"fontname" : "Arial",
					"fontsize" : 12.0,
					"id" : "obj-501",
					"maxclass" : "newobj",
					"numinlets" : 1,
					"numoutlets" : 1,
					"outlettype" : [ "signal" ],
					"patching_rect" : [ 864.0, 743.0, 46.0, 20.0 ],
					"text" : "noise~"
				}

			}
, 			{
				"box" : 				{
					"fontname" : "Arial",
					"fontsize" : 12.0,
					"id" : "obj-502",
					"maxclass" : "newobj",
					"numinlets" : 1,
					"numoutlets" : 1,
					"outlettype" : [ "signal" ],
					"patching_rect" : [ 916.0, 743.0, 46.0, 20.0 ],
					"text" : "noise~"
				}

			}
, 			{
				"box" : 				{
					"fontname" : "Arial",
					"fontsize" : 12.0,
					"id" : "obj-503",
					"maxclass" : "newobj",
					"numinlets" : 3,
					"numoutlets" : 1,
					"outlettype" : [ "signal" ],
					"patching_rect" : [ 976.0, 743.0, 46.0, 20.0 ],
					"text" : "pong~"
				}

			}
, 			{
				"box" : 				{
					"fontname" : "Arial",
					"fontsize" : 12.0,
					"id" : "obj-504",
					"maxclass" : "newobj",
					"numinlets" : 3,
					"numoutlets" : 1,
					"outlettype" : [ "signal" ],
					"patching_rect" : [ 935.0, 700.0, 51.0, 20.0 ],
					"text" : "stutter~"
				}

			}
, 			{
				"box" : 				{
					"fontname" : "Arial",
					"fontsize" : 12.0,
					"id" : "obj-505",
					"maxclass" : "newobj",
					"numinlets" : 1,
					"numoutlets" : 1,
					"outlettype" : [ "signal" ],
					"patching_rect" : [ 897.0, 667.0, 46.0, 20.0 ],
					"text" : "noise~"
				}

			}
, 			{
				"box" : 				{
					"fontname" : "Arial",
					"fontsize" : 12.0,
					"id" : "obj-506",
					"maxclass" : "newobj",
					"numinlets" : 1,
					"numoutlets" : 1,
					"outlettype" : [ "signal" ],
					"patching_rect" : [ 951.0, 667.0, 46.0, 20.0 ],
					"text" : "noise~"
				}

			}
, 			{
				"box" : 				{
					"fontname" : "Arial",
					"fontsize" : 12.0,
					"id" : "obj-507",
					"maxclass" : "newobj",
					"numinlets" : 1,
					"numoutlets" : 1,
					"outlettype" : [ "signal" ],
					"patching_rect" : [ 1009.0, 667.0, 46.0, 20.0 ],
					"text" : "noise~"
				}

			}
, 			{
				"box" : 				{
					"fontname" : "Arial",
					"fontsize" : 12.0,
					"id" : "obj-508",
					"maxclass" : "newobj",
					"numinlets" : 1,
					"numoutlets" : 1,
					"outlettype" : [ "signal" ],
					"patching_rect" : [ 990.0, 700.0, 46.0, 20.0 ],
					"text" : "noise~"
				}

			}
, 			{
				"box" : 				{
					"fontname" : "Arial",
					"fontsize" : 12.0,
					"id" : "obj-509",
					"maxclass" : "newobj",
					"numinlets" : 1,
					"numoutlets" : 1,
					"outlettype" : [ "signal" ],
					"patching_rect" : [ 1038.0, 700.0, 46.0, 20.0 ],
					"text" : "noise~"
				}

			}
, 			{
				"box" : 				{
					"fontname" : "Arial",
					"fontsize" : 12.0,
					"id" : "obj-510",
					"maxclass" : "newobj",
					"numinlets" : 3,
					"numoutlets" : 1,
					"outlettype" : [ "signal" ],
					"patching_rect" : [ 1069.0, 786.0, 46.0, 20.0 ],
					"text" : "lores~"
				}

			}
, 			{
				"box" : 				{
					"fontname" : "Arial",
					"fontsize" : 12.0,
					"id" : "obj-511",
					"maxclass" : "newobj",
					"numinlets" : 1,
					"numoutlets" : 1,
					"outlettype" : [ "signal" ],
					"patching_rect" : [ 1030.0, 743.0, 46.0, 20.0 ],
					"text" : "noise~"
				}

			}
, 			{
				"box" : 				{
					"fontname" : "Arial",
					"fontsize" : 12.0,
					"id" : "obj-512",
					"maxclass" : "newobj",
					"numinlets" : 1,
					"numoutlets" : 1,
					"outlettype" : [ "signal" ],
					"patching_rect" : [ 1083.0, 743.0, 46.0, 20.0 ],
					"text" : "noise~"
				}

			}
, 			{
				"box" : 				{
					"fontname" : "Arial",
					"fontsize" : 12.0,
					"id" : "obj-513",
					"maxclass" : "newobj",
					"numinlets" : 1,
					"numoutlets" : 1,
					"outlettype" : [ "signal" ],
					"patching_rect" : [ 1137.0, 743.0, 46.0, 20.0 ],
					"text" : "noise~"
				}

			}
, 			{
				"box" : 				{
					"fontname" : "Arial",
					"fontsize" : 12.0,
					"id" : "obj-514",
					"maxclass" : "newobj",
					"numinlets" : 1,
					"numoutlets" : 1,
					"outlettype" : [ "" ],
					"patching_rect" : [ 834.5, 950.0, 102.0, 20.0 ],
					"text" : "loadmess 982.73"
				}

			}
, 			{
				"box" : 				{
					"fontname" : "Arial",
					"fontsize" : 12.0,
					"id" : "obj-515",
					"maxclass" : "newobj",
					"numinlets" : 1,
					"numoutlets" : 1,
					"outlettype" : [ "" ],
					"patching_rect" : [ 941.5, 950.0, 102.0, 20.0 ],
					"text" : "loadmess 982.73"
				}

			}
 ],
		"lines" : [ 			{
				"patchline" : 				{
					"destination" : [ "obj-2", 1 ],
					"disabled" : 0,
					"hidden" : 0,
					"source" : [ "obj-433", 0 ]
				}

			}
, 			{
				"patchline" : 				{
					"destination" : [ "obj-2", 0 ],
					"disabled" : 0,
					"hidden" : 0,
					"source" : [ "obj-433", 0 ]
				}

			}
, 			{
				"patchline" : 				{
					"destination" : [ "obj-433", 0 ],
					"disabled" : 0,
					"hidden" : 0,
					"source" : [ "obj-434", 0 ]
				}

			}
, 			{
				"patchline" : 				{
					"destination" : [ "obj-434", 0 ],
					"disabled" : 0,
					"hidden" : 0,
					"source" : [ "obj-435", 0 ]
				}

			}
, 			{
				"patchline" : 				{
					"destination" : [ "obj-434", 1 ],
					"disabled" : 0,
					"hidden" : 0,
					"source" : [ "obj-436", 0 ]
				}

			}
, 			{
				"patchline" : 				{
					"destination" : [ "obj-434", 2 ],
					"disabled" : 0,
					"hidden" : 0,
					"source" : [ "obj-437", 0 ]
				}

			}
, 			{
				"patchline" : 				{
					"destination" : [ "obj-433", 1 ],
					"disabled" : 0,
					"hidden" : 0,
					"source" : [ "obj-438", 0 ]
				}

			}
, 			{
				"patchline" : 				{
					"destination" : [ "obj-438", 0 ],
					"disabled" : 0,
					"hidden" : 0,
					"source" : [ "obj-439", 0 ]
				}

			}
, 			{
				"patchline" : 				{
					"destination" : [ "obj-439", 0 ],
					"disabled" : 0,
					"hidden" : 0,
					"source" : [ "obj-440", 0 ]
				}

			}
, 			{
				"patchline" : 				{
					"destination" : [ "obj-439", 1 ],
					"disabled" : 0,
					"hidden" : 0,
					"source" : [ "obj-441", 0 ]
				}

			}
, 			{
				"patchline" : 				{
					"destination" : [ "obj-439", 2 ],
					"disabled" : 0,
					"hidden" : 0,
					"source" : [ "obj-442", 0 ]
				}

			}
, 			{
				"patchline" : 				{
					"destination" : [ "obj-438", 1 ],
					"disabled" : 0,
					"hidden" : 0,
					"source" : [ "obj-443", 0 ]
				}

			}
, 			{
				"patchline" : 				{
					"destination" : [ "obj-438", 2 ],
					"disabled" : 0,
					"hidden" : 0,
					"source" : [ "obj-444", 0 ]
				}

			}
, 			{
				"patchline" : 				{
					"destination" : [ "obj-433", 2 ],
					"disabled" : 0,
					"hidden" : 0,
					"source" : [ "obj-445", 0 ]
				}

			}
, 			{
				"patchline" : 				{
					"destination" : [ "obj-1", 1 ],
					"disabled" : 0,
					"hidden" : 0,
					"source" : [ "obj-447", 0 ]
				}

			}
, 			{
				"patchline" : 				{
					"destination" : [ "obj-1", 0 ],
					"disabled" : 0,
					"hidden" : 0,
					"source" : [ "obj-447", 0 ]
				}

			}
, 			{
				"patchline" : 				{
					"destination" : [ "obj-447", 0 ],
					"disabled" : 0,
					"hidden" : 0,
					"source" : [ "obj-448", 0 ]
				}

			}
, 			{
				"patchline" : 				{
					"destination" : [ "obj-448", 0 ],
					"disabled" : 0,
					"hidden" : 0,
					"source" : [ "obj-449", 0 ]
				}

			}
, 			{
				"patchline" : 				{
					"destination" : [ "obj-448", 1 ],
					"disabled" : 0,
					"hidden" : 0,
					"source" : [ "obj-450", 0 ]
				}

			}
, 			{
				"patchline" : 				{
					"destination" : [ "obj-448", 2 ],
					"disabled" : 0,
					"hidden" : 0,
					"source" : [ "obj-451", 0 ]
				}

			}
, 			{
				"patchline" : 				{
					"destination" : [ "obj-447", 1 ],
					"disabled" : 0,
					"hidden" : 0,
					"source" : [ "obj-452", 0 ]
				}

			}
, 			{
				"patchline" : 				{
					"destination" : [ "obj-452", 0 ],
					"disabled" : 0,
					"hidden" : 0,
					"source" : [ "obj-453", 0 ]
				}

			}
, 			{
				"patchline" : 				{
					"destination" : [ "obj-452", 1 ],
					"disabled" : 0,
					"hidden" : 0,
					"source" : [ "obj-454", 0 ]
				}

			}
, 			{
				"patchline" : 				{
					"destination" : [ "obj-452", 2 ],
					"disabled" : 0,
					"hidden" : 0,
					"source" : [ "obj-455", 0 ]
				}

			}
, 			{
				"patchline" : 				{
					"destination" : [ "obj-447", 2 ],
					"disabled" : 0,
					"hidden" : 0,
					"source" : [ "obj-456", 0 ]
				}

			}
, 			{
				"patchline" : 				{
					"destination" : [ "obj-3", 1 ],
					"disabled" : 0,
					"hidden" : 0,
					"source" : [ "obj-458", 0 ]
				}

			}
, 			{
				"patchline" : 				{
					"destination" : [ "obj-3", 0 ],
					"disabled" : 0,
					"hidden" : 0,
					"source" : [ "obj-458", 0 ]
				}

			}
, 			{
				"patchline" : 				{
					"destination" : [ "obj-458", 0 ],
					"disabled" : 0,
					"hidden" : 0,
					"source" : [ "obj-459", 0 ]
				}

			}
, 			{
				"patchline" : 				{
					"destination" : [ "obj-459", 0 ],
					"disabled" : 0,
					"hidden" : 0,
					"source" : [ "obj-460", 0 ]
				}

			}
, 			{
				"patchline" : 				{
					"destination" : [ "obj-460", 0 ],
					"disabled" : 0,
					"hidden" : 0,
					"source" : [ "obj-461", 0 ]
				}

			}
, 			{
				"patchline" : 				{
					"destination" : [ "obj-460", 1 ],
					"disabled" : 0,
					"hidden" : 0,
					"source" : [ "obj-462", 0 ]
				}

			}
, 			{
				"patchline" : 				{
					"destination" : [ "obj-462", 0 ],
					"disabled" : 0,
					"hidden" : 0,
					"source" : [ "obj-463", 0 ]
				}

			}
, 			{
				"patchline" : 				{
					"destination" : [ "obj-463", 0 ],
					"disabled" : 0,
					"hidden" : 0,
					"source" : [ "obj-464", 0 ]
				}

			}
, 			{
				"patchline" : 				{
					"destination" : [ "obj-463", 1 ],
					"disabled" : 0,
					"hidden" : 0,
					"source" : [ "obj-465", 0 ]
				}

			}
, 			{
				"patchline" : 				{
					"destination" : [ "obj-463", 2 ],
					"disabled" : 0,
					"hidden" : 0,
					"source" : [ "obj-466", 0 ]
				}

			}
, 			{
				"patchline" : 				{
					"destination" : [ "obj-462", 1 ],
					"disabled" : 0,
					"hidden" : 0,
					"source" : [ "obj-467", 0 ]
				}

			}
, 			{
				"patchline" : 				{
					"destination" : [ "obj-467", 0 ],
					"disabled" : 0,
					"hidden" : 0,
					"source" : [ "obj-468", 0 ]
				}

			}
, 			{
				"patchline" : 				{
					"destination" : [ "obj-467", 1 ],
					"disabled" : 0,
					"hidden" : 0,
					"source" : [ "obj-469", 0 ]
				}

			}
, 			{
				"patchline" : 				{
					"destination" : [ "obj-467", 2 ],
					"disabled" : 0,
					"hidden" : 0,
					"source" : [ "obj-470", 0 ]
				}

			}
, 			{
				"patchline" : 				{
					"destination" : [ "obj-462", 2 ],
					"disabled" : 0,
					"hidden" : 0,
					"source" : [ "obj-471", 0 ]
				}

			}
, 			{
				"patchline" : 				{
					"destination" : [ "obj-460", 2 ],
					"disabled" : 0,
					"hidden" : 0,
					"source" : [ "obj-472", 0 ]
				}

			}
, 			{
				"patchline" : 				{
					"destination" : [ "obj-472", 0 ],
					"disabled" : 0,
					"hidden" : 0,
					"source" : [ "obj-473", 0 ]
				}

			}
, 			{
				"patchline" : 				{
					"destination" : [ "obj-473", 0 ],
					"disabled" : 0,
					"hidden" : 0,
					"source" : [ "obj-474", 0 ]
				}

			}
, 			{
				"patchline" : 				{
					"destination" : [ "obj-473", 1 ],
					"disabled" : 0,
					"hidden" : 0,
					"source" : [ "obj-475", 0 ]
				}

			}
, 			{
				"patchline" : 				{
					"destination" : [ "obj-473", 2 ],
					"disabled" : 0,
					"hidden" : 0,
					"source" : [ "obj-476", 0 ]
				}

			}
, 			{
				"patchline" : 				{
					"destination" : [ "obj-472", 1 ],
					"disabled" : 0,
					"hidden" : 0,
					"source" : [ "obj-477", 0 ]
				}

			}
, 			{
				"patchline" : 				{
					"destination" : [ "obj-477", 0 ],
					"disabled" : 0,
					"hidden" : 0,
					"source" : [ "obj-478", 0 ]
				}

			}
, 			{
				"patchline" : 				{
					"destination" : [ "obj-478", 0 ],
					"disabled" : 0,
					"hidden" : 0,
					"source" : [ "obj-479", 0 ]
				}

			}
, 			{
				"patchline" : 				{
					"destination" : [ "obj-478", 1 ],
					"disabled" : 0,
					"hidden" : 0,
					"source" : [ "obj-480", 0 ]
				}

			}
, 			{
				"patchline" : 				{
					"destination" : [ "obj-478", 2 ],
					"disabled" : 0,
					"hidden" : 0,
					"source" : [ "obj-481", 0 ]
				}

			}
, 			{
				"patchline" : 				{
					"destination" : [ "obj-477", 1 ],
					"disabled" : 0,
					"hidden" : 0,
					"source" : [ "obj-482", 0 ]
				}

			}
, 			{
				"patchline" : 				{
					"destination" : [ "obj-482", 0 ],
					"disabled" : 0,
					"hidden" : 0,
					"source" : [ "obj-483", 0 ]
				}

			}
, 			{
				"patchline" : 				{
					"destination" : [ "obj-482", 1 ],
					"disabled" : 0,
					"hidden" : 0,
					"source" : [ "obj-484", 0 ]
				}

			}
, 			{
				"patchline" : 				{
					"destination" : [ "obj-482", 2 ],
					"disabled" : 0,
					"hidden" : 0,
					"source" : [ "obj-485", 0 ]
				}

			}
, 			{
				"patchline" : 				{
					"destination" : [ "obj-477", 2 ],
					"disabled" : 0,
					"hidden" : 0,
					"source" : [ "obj-486", 0 ]
				}

			}
, 			{
				"patchline" : 				{
					"destination" : [ "obj-472", 2 ],
					"disabled" : 0,
					"hidden" : 0,
					"source" : [ "obj-487", 0 ]
				}

			}
, 			{
				"patchline" : 				{
					"destination" : [ "obj-487", 0 ],
					"disabled" : 0,
					"hidden" : 0,
					"source" : [ "obj-488", 0 ]
				}

			}
, 			{
				"patchline" : 				{
					"destination" : [ "obj-488", 0 ],
					"disabled" : 0,
					"hidden" : 0,
					"source" : [ "obj-489", 0 ]
				}

			}
, 			{
				"patchline" : 				{
					"destination" : [ "obj-488", 1 ],
					"disabled" : 0,
					"hidden" : 0,
					"source" : [ "obj-490", 0 ]
				}

			}
, 			{
				"patchline" : 				{
					"destination" : [ "obj-488", 2 ],
					"disabled" : 0,
					"hidden" : 0,
					"source" : [ "obj-491", 0 ]
				}

			}
, 			{
				"patchline" : 				{
					"destination" : [ "obj-487", 1 ],
					"disabled" : 0,
					"hidden" : 0,
					"source" : [ "obj-492", 0 ]
				}

			}
, 			{
				"patchline" : 				{
					"destination" : [ "obj-487", 2 ],
					"disabled" : 0,
					"hidden" : 0,
					"source" : [ "obj-493", 0 ]
				}

			}
, 			{
				"patchline" : 				{
					"destination" : [ "obj-459", 1 ],
					"disabled" : 0,
					"hidden" : 0,
					"source" : [ "obj-494", 0 ]
				}

			}
, 			{
				"patchline" : 				{
					"destination" : [ "obj-459", 2 ],
					"disabled" : 0,
					"hidden" : 0,
					"source" : [ "obj-495", 0 ]
				}

			}
, 			{
				"patchline" : 				{
					"destination" : [ "obj-495", 0 ],
					"disabled" : 0,
					"hidden" : 0,
					"source" : [ "obj-496", 0 ]
				}

			}
, 			{
				"patchline" : 				{
					"destination" : [ "obj-495", 1 ],
					"disabled" : 0,
					"hidden" : 0,
					"source" : [ "obj-497", 0 ]
				}

			}
, 			{
				"patchline" : 				{
					"destination" : [ "obj-495", 2 ],
					"disabled" : 0,
					"hidden" : 0,
					"source" : [ "obj-498", 0 ]
				}

			}
, 			{
				"patchline" : 				{
					"destination" : [ "obj-498", 0 ],
					"disabled" : 0,
					"hidden" : 0,
					"source" : [ "obj-499", 0 ]
				}

			}
, 			{
				"patchline" : 				{
					"destination" : [ "obj-499", 0 ],
					"disabled" : 0,
					"hidden" : 0,
					"source" : [ "obj-500", 0 ]
				}

			}
, 			{
				"patchline" : 				{
					"destination" : [ "obj-499", 1 ],
					"disabled" : 0,
					"hidden" : 0,
					"source" : [ "obj-501", 0 ]
				}

			}
, 			{
				"patchline" : 				{
					"destination" : [ "obj-499", 2 ],
					"disabled" : 0,
					"hidden" : 0,
					"source" : [ "obj-502", 0 ]
				}

			}
, 			{
				"patchline" : 				{
					"destination" : [ "obj-498", 1 ],
					"disabled" : 0,
					"hidden" : 0,
					"source" : [ "obj-503", 0 ]
				}

			}
, 			{
				"patchline" : 				{
					"destination" : [ "obj-503", 0 ],
					"disabled" : 0,
					"hidden" : 0,
					"source" : [ "obj-504", 0 ]
				}

			}
, 			{
				"patchline" : 				{
					"destination" : [ "obj-504", 0 ],
					"disabled" : 0,
					"hidden" : 0,
					"source" : [ "obj-505", 0 ]
				}

			}
, 			{
				"patchline" : 				{
					"destination" : [ "obj-504", 1 ],
					"disabled" : 0,
					"hidden" : 0,
					"source" : [ "obj-506", 0 ]
				}

			}
, 			{
				"patchline" : 				{
					"destination" : [ "obj-504", 2 ],
					"disabled" : 0,
					"hidden" : 0,
					"source" : [ "obj-507", 0 ]
				}

			}
, 			{
				"patchline" : 				{
					"destination" : [ "obj-503", 1 ],
					"disabled" : 0,
					"hidden" : 0,
					"source" : [ "obj-508", 0 ]
				}

			}
, 			{
				"patchline" : 				{
					"destination" : [ "obj-503", 2 ],
					"disabled" : 0,
					"hidden" : 0,
					"source" : [ "obj-509", 0 ]
				}

			}
, 			{
				"patchline" : 				{
					"destination" : [ "obj-498", 2 ],
					"disabled" : 0,
					"hidden" : 0,
					"source" : [ "obj-510", 0 ]
				}

			}
, 			{
				"patchline" : 				{
					"destination" : [ "obj-510", 0 ],
					"disabled" : 0,
					"hidden" : 0,
					"source" : [ "obj-511", 0 ]
				}

			}
, 			{
				"patchline" : 				{
					"destination" : [ "obj-510", 1 ],
					"disabled" : 0,
					"hidden" : 0,
					"source" : [ "obj-512", 0 ]
				}

			}
, 			{
				"patchline" : 				{
					"destination" : [ "obj-510", 2 ],
					"disabled" : 0,
					"hidden" : 0,
					"source" : [ "obj-513", 0 ]
				}

			}
, 			{
				"patchline" : 				{
					"destination" : [ "obj-458", 1 ],
					"disabled" : 0,
					"hidden" : 0,
					"source" : [ "obj-514", 0 ]
				}

			}
, 			{
				"patchline" : 				{
					"destination" : [ "obj-458", 2 ],
					"disabled" : 0,
					"hidden" : 0,
					"source" : [ "obj-515", 0 ]
				}

			}
 ],
		"dependency_cache" : [  ]
	}

}
